<svg width="640" height="340" viewBox="0 0 640 340" fill="none" xmlns="http://www.w3.org/2000/svg">
<rect width="640" height="340" fill="#E7F2FF"/>
<path d="M301.963 222.238H267.538V187.925" stroke="black" stroke-linecap="round" stroke-linejoin="round"/>
<path d="M267.575 152.188V117.763H301.888" stroke="black" stroke-linecap="round" stroke-linejoin="round"/>
<path d="M338.038 117.763H372.463V152.075" stroke="black" stroke-linecap="round" stroke-linejoin="round"/>
<path d="M372.425 187.812V222.237H338.113" stroke="black" stroke-linecap="round" stroke-linejoin="round"/>
<path d="M346.192 169.26C346.405 168.389 346.54 167.499 346.501 166.569C346.308 161.108 341.815 156.853 336.49 157.051C336.413 157.051 336.355 157.071 336.297 157.071C332.579 151.095 325.976 147.237 318.559 147.514C311.646 147.771 305.682 151.57 302.255 157.15C301.887 157.15 301.519 157.111 301.132 157.15C292.612 157.467 285.951 164.808 286.26 173.534C286.57 182.062 293.425 188.75 301.693 188.75H344.1V188.71C344.216 188.71 344.333 188.73 344.449 188.73C349.774 188.532 353.937 183.942 353.744 178.481C353.569 173.89 350.374 170.19 346.172 169.22L346.192 169.26Z" fill="#5DA7FF"/>
</svg>
