<svg width="640" height="340" viewBox="0 0 640 340" fill="none" xmlns="http://www.w3.org/2000/svg">
<rect width="640" height="340" fill="#E7F2FF"/>
<path d="M308.267 162.067C321.466 162.067 332.167 151.307 332.167 138.033C332.167 124.76 321.466 114 308.267 114C295.067 114 284.367 124.76 284.367 138.033C284.367 151.307 295.067 162.067 308.267 162.067Z" stroke="black" stroke-linecap="round" stroke-linejoin="round"/>
<path d="M350.533 208.333V180.3C350.533 170.233 342.367 162.067 332.3 162.067H284.233C274.167 162.067 266 170.233 266 180.3V220.6" stroke="black" stroke-linecap="round" stroke-linejoin="round"/>
<path d="M367.468 207.3C367.679 206.456 367.813 205.593 367.774 204.691C367.583 199.395 363.146 195.27 357.887 195.462C357.81 195.462 357.753 195.481 357.696 195.481C354.024 189.686 347.502 185.945 340.177 186.214C333.35 186.463 327.459 190.147 324.074 195.558C323.711 195.558 323.347 195.519 322.965 195.558C314.55 195.865 307.971 202.983 308.277 211.445C308.583 219.715 315.353 226.2 323.519 226.2H365.403V226.162C365.518 226.162 365.632 226.181 365.747 226.181C371.006 225.989 375.118 221.537 374.927 216.242C374.755 211.79 371.599 208.202 367.449 207.262L367.468 207.3Z" fill="#5DA7FF"/>
</svg>
