<?xml version="1.0" encoding="UTF-8"?><svg id="Layer_2" xmlns="http://www.w3.org/2000/svg" viewBox="0 0 195 28.97"><defs><style>.cls-1{fill:lime;}.cls-2{fill:#fff;}.cls-3{fill:#d1bbff;}.cls-4{fill:#5da7ff;}</style></defs><g id="Layer_1-2"><g><circle class="cls-1" cx="186.55" cy="15.13" r="8.45"/><g><g><path d="M47.9,23.25h-3.33c-.1,0-.18-.08-.18-.18V.18c0-.1,.08-.18,.18-.18h3.33c.1,0,.18,.08,.18,.18V23.08c0,.1-.08,.18-.18,.18Z"/><path d="M66.11,16.01h-12c-.11,0-.19,.1-.17,.21,.46,2.5,2.23,4.01,4.78,4.01,1.75,0,3.36-.74,4.16-1.91,.05-.08,.16-.11,.24-.05l2.67,1.71c.08,.05,.11,.16,.06,.24-1.24,2.1-3.91,3.37-7.19,3.37-4.68,0-8.44-3.69-8.44-8.54s3.69-8.37,8.37-8.37c4.38,0,7.8,3.39,7.8,7.74,0,.39-.03,.97-.11,1.45-.01,.08-.09,.14-.17,.14Zm-3.81-2.82c.11,0,.19-.09,.18-.2-.29-1.92-1.94-3.26-4.09-3.26s-3.67,1.24-4.29,3.23c-.03,.11,.05,.22,.17,.22h8.04Z"/><path d="M84.83,7.19v15.89c0,.1-.08,.18-.18,.18h-3.33c-.1,0-.18-.08-.18-.18v-1.46c0-.17-.21-.24-.31-.11-1,1.23-2.94,2.08-4.87,2.08-4.38,0-7.8-3.72-7.8-8.47s3.42-8.44,7.8-8.44c1.93,0,3.86,.85,4.87,2.08,.11,.13,.31,.06,.31-.11v-1.46c0-.1,.08-.18,.18-.18h3.33c.1,0,.18,.08,.18,.18Zm-3.69,10.4v-4.88s0-.06-.02-.09c-.81-1.41-2.55-2.42-4.39-2.42-2.79,0-4.92,2.09-4.92,4.92s2.13,4.95,4.92,4.95c1.81,0,3.58-1.01,4.39-2.38,.02-.03,.02-.06,.02-.09Z"/><path d="M104.19,15.15c0,4.72-3.42,8.44-7.8,8.44-1.93,0-3.86-.85-4.87-2.08-.11-.13-.31-.06-.31,.11v7.17c0,.1-.08,.18-.18,.18h-3.33c-.1,0-.18-.08-.18-.18V7.19c0-.1,.08-.18,.18-.18h3.33c.1,0,.18,.08,.18,.18v1.44c0,.17,.21,.24,.31,.11,1-1.2,2.94-2.05,4.87-2.05,4.38,0,7.8,3.72,7.8,8.47Zm-3.65,0c0-2.86-2.13-4.95-4.92-4.95-1.81,0-3.58,1.01-4.39,2.38-.02,.03-.02,.06-.02,.09v4.88s0,.06,.02,.09c.81,1.41,2.55,2.42,4.39,2.42,2.79,0,4.92-2.09,4.92-4.92Z"/><path d="M104.58,7.01h3.57c.08,0,.14,.05,.17,.12l3.22,9.92c.05,.16,.28,.16,.33,0l3.57-9.93c.03-.07,.09-.12,.17-.12h2.74c.07,0,.14,.05,.17,.12l3.6,9.93c.06,.16,.28,.15,.33,0l3.22-9.92c.02-.07,.09-.12,.17-.12h3.57c.12,0,.21,.12,.17,.24l-5.75,15.89c-.03,.07-.09,.12-.17,.12h-2.71c-.07,0-.14-.05-.17-.12l-3.64-9.96c-.06-.15-.27-.15-.33,0l-3.64,9.96c-.03,.07-.09,.12-.17,.12h-2.68c-.07,0-.14-.05-.17-.12l-5.75-15.89c-.04-.11,.04-.24,.17-.24Z"/><path d="M146.37,15.15c0,4.82-3.69,8.44-8.44,8.44s-8.4-3.62-8.4-8.44,3.65-8.47,8.4-8.47,8.44,3.65,8.44,8.47Zm-13.18,0c0,2.76,2.06,4.88,4.75,4.88s4.78-2.13,4.78-4.88-2.09-4.92-4.78-4.92-4.75,2.13-4.75,4.92Z"/><path d="M158.03,7.08l-.21,3.13c0,.11-.12,.19-.22,.16-.53-.16-1.16-.26-1.72-.26-1.22,0-2.96,.98-3.83,2.75-.01,.03-.02,.05-.02,.08v10.14c0,.1-.08,.18-.18,.18h-3.33c-.1,0-.18-.08-.18-.18V7.19c0-.1,.08-.18,.18-.18h3.33c.1,0,.18,.08,.18,.18v1.44c0,.17,.22,.24,.32,.11,.92-1.27,2.51-2.05,3.84-2.05,.7,0,1.28,.08,1.73,.22,.08,.02,.13,.1,.12,.18Z"/><path class="cls-4" d="M36.68,7.01h-13.1c-.87,0-1.57,.7-1.57,1.57v13.1c0,.87,.7,1.57,1.57,1.57h13.1c.87,0,1.57-.7,1.57-1.57V8.58c0-.87-.7-1.57-1.57-1.57Z"/><circle class="cls-3" cx="8.45" cy="15.13" r="8.45"/><path d="M167.66,13.69c-.11-.04-.14-.18-.06-.26l5.94-6.14c.1-.1,.03-.28-.12-.28h-4.24c-.08,0-.16,.03-.22,.09l-5.29,5.72c-.1,.11-.28,.04-.28-.11V.16c0-.09-.07-.16-.16-.16h-3.36c-.09,0-.16,.07-.16,.16V23.09c0,.09,.07,.16,.16,.16h3.36c.09,0,.16-.07,.16-.16v-6.61c0-.09,.07-.16,.16-.16h.22c3.61,0,6.55,3.19,6.63,6.77,0,.09,.07,.16,.16,.16h3.37c.09,0,.16-.07,.16-.17-.07-4.25-2.72-7.88-6.44-9.4Z"/></g><path class="cls-2" d="M191.78,12.75c0,.08-.06,.14-.14,.15-1.36,.05-2.76,.75-3.86,1.95-1.05,1.14-1.69,2.56-1.74,3.83,0,.08-.07,.14-.15,.14h-2.04c-.08,0-.14-.07-.15-.14-.09-1.99-2.12-2.36-2.49-2.36-.08,0-.13-.07-.13-.15v-1.63c0-.08,.07-.15,.15-.15,.74,.03,1.8,.28,2.7,.92,.2,.14,.4,.31,.6,.51,.07,.07,.19,.05,.24-.04,1.25-2.54,3.84-4.73,6.86-4.8,.08,0,.15,.07,.15,.15v1.62Z"/></g></g></g></svg>